<svg width="46" height="90" viewBox="0 0 46 90" fill="none" xmlns="http://www.w3.org/2000/svg">
<g clip-path="url(#clip0)">
<path d="M43.7179 83.1747C43.7179 89.602 30.8097 91.3456 30.8097 83.1168C30.8097 59.1995 30.7601 36.6426 30.8097 25.3595C30.852 15.7427 29.6793 14.2095 23.3905 14.2095C13.8164 14.2095 15.0663 23.9729 15.0663 26.6287C15.0663 33.2141 14.215 37.2612 7.36404 37.2612C0.513049 37.2612 1.34527 28.5833 1.34527 25.5452C1.34527 14.1761 8.69011 1.32422 24.2593 1.32422C33.4223 1.32422 40.502 7.17814 42.7461 12.3148C46.404 20.6857 43.7177 50.0611 43.7177 83.1751L43.7179 83.1747Z" fill="white"/>
<path fill-rule="evenodd" clip-rule="evenodd" d="M19.3886 1.32179L8.30942 6.28282L2.1543 18.0652V34.4986L4.61635 36.6691L10.7715 37.5993L14.1568 33.8785L16.0033 18.3753L19.3886 14.3445L27.3903 14.0344L29.8523 18.6854L31.0834 85.3491L34.4687 87.5196L40.6238 88.1397L43.7014 83.1787L44.3169 28.9175L43.7014 13.1042L37.854 5.66269L30.1601 1.94192L23.6972 0.391602L19.3886 1.32179Z" fill="white"/>
<path d="M2.93295 15.8682C6.55375 19.7982 10.0982 23.0255 14.6637 23.3947C14.0078 24.8981 15.2892 25.4571 14.6332 26.9605C9.75175 27.7337 3.58444 22.7934 2.17714 20.2124C1.2319 18.4788 2.55857 20.1496 2.93277 15.8682H2.93295Z" fill="#A1DB7A"/>
<path d="M2.12077 25.3757C5.74157 29.3058 9.59854 31.3367 14.164 31.7059C13.5081 33.2093 12.8521 34.7128 12.1961 36.2163C4.03599 37.5087 1.18925 36.0316 2.12059 25.3757H2.12077Z" fill="#CD0909"/>
<path d="M5.77344 11.9026C7.30298 14.8238 10.9283 18.5008 14.5952 19.991L19.0818 14.4567C16.6453 12.0253 14.4225 8.64488 14.0609 4.54419C9.99109 5.85892 8.43618 8.5849 5.77344 11.9035V11.9026Z" fill="#CD0909"/>
<path d="M28.2238 2.33075C26.118 3.52439 23.4834 8.10319 23.9102 13.3813C26.0345 14.2952 28.1588 15.209 30.2831 16.1228C31.4626 11.9504 33.6996 8.17642 36.7674 6.44308C36.7674 6.44308 33.5392 3.08596 28.2236 2.33057L28.2238 2.33075Z" fill="#CD0909"/>
<path d="M44.1928 20.8262C39.5881 21.3102 35.5014 24.2239 31.5198 27.6312L30.9688 38.3926C34.4688 34.6014 39.9656 29.0786 45.098 30.1632L44.1928 20.8262Z" fill="#CD0909"/>
<path d="M44.114 45.1174C39.5734 45.8588 35.365 48.175 31.559 52.3973L31.2441 61.4969C34.2419 58.8551 37.7986 55.3718 43.7204 53.9799L44.114 45.1174Z" fill="#CD0909"/>
<path d="M43.1143 67.9348C39.2609 68.7042 35.4825 70.4185 31.3701 73.7538L31.4258 82.3704C36.194 77.5585 39.3757 75.5443 43.0585 75.1527L43.1143 67.9348Z" fill="#CD0909"/>
<path d="M23.1195 1.51245C19.9283 3.8684 20.5355 10.5587 23.2261 13.2576C23.758 15.816 24.539 13.0533 23.883 14.5567C19.0016 15.3299 21.3961 14.2934 19.9888 11.7124C19.0436 9.97881 16.558 4.53465 19.4321 2.45692L23.1195 1.51245Z" fill="#A1DB7A"/>
<path d="M42.511 12.1533C37.5778 12.8722 33.7208 15.2179 30.1553 18.6094C30.8112 20.1129 29.9673 21.9311 30.6233 23.4346C33.3799 18.8558 38.9847 14.9229 43.1419 16.5605C44.9703 17.2808 43.1979 17.6311 42.8237 13.3496L42.511 12.1533Z" fill="#A1DB7A"/>
<path d="M43.1976 36.8352C38.2643 37.5541 34.4074 39.8998 30.8418 43.2913C31.4977 44.7947 30.6538 46.613 31.3098 48.1165C34.0664 43.5376 39.6713 39.6048 43.8284 41.2424C45.6568 41.9627 43.8844 42.313 43.5102 38.0315L43.1976 36.8352Z" fill="#A1DB7A"/>
<path d="M43.511 59.7542C38.5777 60.473 33.7208 63.0077 30.1553 66.3991C30.8112 67.9026 29.9673 69.7209 30.6233 71.2243C33.3799 66.6455 38.9847 62.7127 43.1419 64.3503C44.9703 65.0705 43.1979 65.4208 42.8237 61.1394L43.511 59.7542Z" fill="#A1DB7A"/>
<path d="M43.8226 78.3918C38.8893 79.1107 35.0324 81.4565 31.4668 84.848C32.1227 86.3514 31.8413 85.84 32.4973 87.3434C33.629 83.3943 40.1713 80.0281 44.4534 82.7991C46.1052 83.868 44.5094 83.8697 44.1352 79.5882L43.8226 78.3918Z" fill="#A1DB7A"/>
<path opacity="0.262" fill-rule="evenodd" clip-rule="evenodd" d="M33.248 86.726C36.3421 86.6504 39.0938 86.1347 40.7475 84.2074C42.3927 71.4778 41.909 57.6759 42.3724 44.351L41.7475 16.7097L41.4975 10.2244L43.8723 17.906L43.1224 85.6556L37.3728 89.2446L33.248 86.726Z" fill="black"/>
<path d="M23.9739 10.4719C23.8608 11.3888 23.8311 12.3474 23.9071 13.3312C23.9326 13.3315 23.9596 13.3308 23.9851 13.3312C24.1301 13.3338 24.2734 13.3391 24.4137 13.3431C24.7457 13.3538 25.0641 13.3689 25.3711 13.3935C25.524 13.4054 25.6748 13.422 25.8219 13.4383C25.9147 13.4489 26.0096 13.4597 26.1002 13.4718C26.152 13.4798 26.2051 13.4867 26.256 13.4942C26.3629 13.5101 26.4696 13.5258 26.5733 13.5445C26.6065 13.5499 26.6408 13.5566 26.6734 13.5614C26.709 13.5694 26.7438 13.5765 26.7791 13.5837C27.014 13.6314 27.2434 13.6863 27.4637 13.7516C28.4593 14.0462 29.315 14.564 29.9518 15.3351C29.9972 15.3902 30.0421 15.4454 30.0853 15.503C30.1284 15.5607 30.1726 15.6218 30.2133 15.6821C30.2622 15.7543 30.3064 15.8307 30.3524 15.9059C30.5143 15.3526 30.6994 14.8064 30.8979 14.272C29.5759 11.7309 27.1187 10.6502 24.6639 10.5007C24.4285 10.4865 24.2002 10.4779 23.9737 10.4727L23.9739 10.4719ZM17.1721 12.268C15.3628 13.5386 14.0726 15.4091 12.9753 17.6507C12.7818 18.0459 12.6163 18.4633 12.4799 18.8984C13.1644 19.3256 13.8644 19.6963 14.5671 19.984C14.5751 19.9543 14.5819 19.9242 14.5895 19.8945C14.6101 19.812 14.6283 19.7305 14.6508 19.6482C14.6947 19.4848 14.7437 19.3237 14.7955 19.1615C15.2765 17.6533 16.1045 16.1679 17.5063 15.0768C17.6074 14.998 17.7111 14.9216 17.818 14.8474C17.8949 14.794 17.9773 14.7414 18.0573 14.6907C18.06 14.6894 18.06 14.6867 18.0626 14.6854C18.1492 14.6305 18.2397 14.5807 18.3298 14.5287C18.343 14.5207 18.3557 14.5139 18.3688 14.5064C18.4445 14.4632 18.5188 14.4187 18.597 14.3776C18.6696 14.3394 18.7448 14.302 18.8196 14.2657C18.8347 14.2577 18.849 14.2506 18.8642 14.2433C18.2765 13.6396 17.7052 12.9795 17.1721 12.2682L17.1721 12.268ZM43.4608 20.9295C42.9501 21.0124 42.4457 21.121 41.9469 21.2597C42.0553 24.167 42.14 27.1625 42.2029 30.2011C42.7257 30.0913 43.2505 30.0317 43.7725 30.0332C43.7686 29.3256 43.762 28.6338 43.7502 27.9574C43.7325 26.834 43.704 25.7657 43.6667 24.7344C43.6575 24.5233 43.6527 24.3036 43.6444 24.0966C43.6433 24.0715 43.6404 24.0488 43.6391 24.0238C43.6142 23.4402 43.5882 22.8735 43.5555 22.3227C43.5272 21.8433 43.4959 21.3835 43.461 20.9295L43.4608 20.9295ZM11.7504 31.3426C11.7317 31.5206 11.7091 31.6949 11.6836 31.8629C11.3455 34.0894 9.71155 35.7551 9.16211 36.261C9.28985 36.2439 9.41457 36.2259 9.53503 36.205C9.88988 36.143 10.2126 36.0658 10.5091 35.97C10.5144 35.9687 10.5197 35.966 10.5258 35.9647C10.5363 35.9607 10.5478 35.9566 10.5592 35.9526C10.6474 35.9232 10.7318 35.8899 10.8153 35.8577C11.0036 35.7844 11.1842 35.7056 11.3496 35.6171C11.3646 35.6078 11.3794 35.6028 11.3942 35.5947C11.462 35.5573 11.5248 35.5173 11.589 35.4772C11.5929 35.4745 11.5969 35.4746 11.5995 35.4719C11.6731 35.4259 11.742 35.3757 11.8111 35.3264C11.8834 35.2746 11.955 35.2195 12.0226 35.1641C12.088 35.1104 12.1506 35.0591 12.2118 35.0019L12.2171 34.9965C12.2935 34.9249 12.3694 34.8497 12.4397 34.7727C12.4854 34.7225 12.5299 34.6685 12.5733 34.6161C12.5999 34.5839 12.6255 34.5537 12.6513 34.5211C12.6902 34.4712 12.7258 34.4217 12.7627 34.37C12.7887 34.3336 12.8154 34.2954 12.8407 34.2581C12.8546 34.2382 12.8666 34.2167 12.8797 34.1965C12.9278 34.123 12.974 34.0497 13.0188 33.9727C13.0638 33.8954 13.105 33.8141 13.1468 33.7321C13.1574 33.7117 13.1701 33.6913 13.1801 33.6705C13.2105 33.6091 13.2406 33.5444 13.2691 33.4803C13.2718 33.4723 13.2784 33.4655 13.2797 33.4579C13.3122 33.3839 13.344 33.3116 13.3743 33.2342C13.3769 33.2288 13.3769 33.2221 13.3795 33.2173C13.3808 33.212 13.3835 33.2053 13.3848 33.2004C13.4533 33.0227 13.5161 32.8357 13.5741 32.6409C13.5751 32.6369 13.5781 32.6329 13.5794 32.6289C13.6079 32.5333 13.6312 32.4321 13.6573 32.3324C13.6846 32.2276 13.7106 32.1225 13.7353 32.0134C13.76 31.9045 13.7853 31.7909 13.8076 31.6777C13.104 31.6071 12.4197 31.4942 11.7482 31.342L11.7504 31.3426ZM43.5666 45.2197C43.1578 45.2984 42.7509 45.3945 42.3476 45.4994C42.3464 48.5267 42.3299 51.4952 42.2975 54.3736C42.634 54.2695 42.9796 54.1727 43.3328 54.0827C43.4159 51.0481 43.4962 48.0355 43.5666 45.2197H43.5666ZM42.9989 67.9645C42.6706 68.0317 42.3413 68.1069 42.0137 68.1883C41.9313 70.8446 41.8434 73.2728 41.741 75.3728C42.1178 75.2885 42.4973 75.2236 42.882 75.177C42.9104 72.7364 42.9523 70.3386 42.9988 67.9645H42.9989Z" fill="#870101"/>
<path opacity="0.142" fill-rule="evenodd" clip-rule="evenodd" d="M9.68652 35.9137C9.68652 35.9137 11.5507 34.2125 11.7489 31.9469C11.9471 29.6813 10.5396 21.8373 13.3113 16.9615C15.6309 12.8578 18.6883 10.0425 23.4981 10.2873C26.1986 10.9265 29.0122 10.8876 31.185 14.6948L32.1225 20.4874L29.4977 14.6318L18.7484 14.8206L15.1236 17.9689L14.1237 29.6173L13.0613 35.2211L10.0615 36.6064L9.68652 35.9137Z" fill="black"/>
<path d="M43.7179 83.1747C43.7179 89.602 30.8097 91.3456 30.8097 83.1168C30.8097 59.1995 30.7601 36.6426 30.8097 25.3595C30.852 15.7427 29.6793 14.2095 23.3905 14.2095C13.8164 14.2095 15.0663 23.9729 15.0663 26.6287C15.0663 33.2142 14.215 37.2612 7.36404 37.2612C0.513049 37.2612 1.34527 28.5833 1.34527 25.5452C1.34527 14.1761 8.69011 1.32422 24.2593 1.32422C33.4223 1.32422 40.502 7.17814 42.7461 12.3148C46.404 20.6857 43.7177 50.0611 43.7177 83.1751L43.7179 83.1747Z" stroke="black" stroke-width="2"/>
</g>
<defs>
<clipPath id="clip0">
<rect width="46" height="90" fill="white"/>
</clipPath>
</defs>
</svg>
